<svg xmlns="http://www.w3.org/2000/svg" width="1440" height="900"><path d="M742,495L774,602L832,565Z" fill="#84bc46" stroke="#84bc46" stroke-width="1.51"/><path d="M832,565L838,365L742,495Z" fill="#87bf48" stroke="#87bf48" stroke-width="1.51"/><path d="M834,714L909,604L832,565Z" fill="#7eb543" stroke="#7eb543" stroke-width="1.51"/><path d="M774,602L834,714L832,565Z" fill="#7fb744" stroke="#7fb744" stroke-width="1.51"/><path d="M742,495L593,538L774,602Z" fill="#87bf48" stroke="#87bf48" stroke-width="1.51"/><path d="M774,602L700,789L834,714Z" fill="#7cb442" stroke="#7cb442" stroke-width="1.51"/><path d="M935,359L838,365L832,565Z" fill="#87be49" stroke="#87be49" stroke-width="1.51"/><path d="M742,495L593,440L593,538Z" fill="#8cc24e" stroke="#8cc24e" stroke-width="1.51"/><path d="M657,321L593,440L742,495Z" fill="#8fc550" stroke="#8fc550" stroke-width="1.51"/><path d="M593,538L560,628L774,602Z" fill="#87bd4b" stroke="#87bd4b" stroke-width="1.51"/><path d="M458,519L560,628L593,538Z" fill="#8dc152" stroke="#8dc152" stroke-width="1.51"/><path d="M909,604L935,359L832,565Z" fill="#82ba45" stroke="#82ba45" stroke-width="1.51"/><path d="M842,196L773,292L838,365Z" fill="#91c457" stroke="#91c457" stroke-width="1.51"/><path d="M838,365L773,292L742,495Z" fill="#8dc34f" stroke="#8dc34f" stroke-width="1.51"/><path d="M909,604L1029,551L935,359Z" fill="#81b844" stroke="#81b844" stroke-width="1.51"/><path d="M1003,687L1029,551L909,604Z" fill="#7bb242" stroke="#7bb242" stroke-width="1.51"/><path d="M773,292L657,321L742,495Z" fill="#90c551" stroke="#90c551" stroke-width="1.51"/><path d="M588,746L700,789L774,602Z" fill="#7eb545" stroke="#7eb545" stroke-width="1.51"/><path d="M834,714L1003,687L909,604Z" fill="#7ab141" stroke="#7ab141" stroke-width="1.51"/><path d="M987,752L1003,687L834,714Z" fill="#76ad3f" stroke="#76ad3f" stroke-width="1.51"/><path d="M560,628L588,746L774,602Z" fill="#83b949" stroke="#83b949" stroke-width="1.51"/><path d="M885,884L987,752L834,714Z" fill="#73aa3d" stroke="#73aa3d" stroke-width="1.51"/><path d="M1029,551L1078,363L935,359Z" fill="#83b947" stroke="#83b947" stroke-width="1.51"/><path d="M1064,680L1084,541L1029,551Z" fill="#79b040" stroke="#79b040" stroke-width="1.51"/><path d="M1064,680L1029,551L1003,687Z" fill="#77ae3f" stroke="#77ae3f" stroke-width="1.51"/><path d="M987,752L1064,680L1003,687Z" fill="#73aa3e" stroke="#73aa3e" stroke-width="1.51"/><path d="M593,440L458,519L593,538Z" fill="#8fc353" stroke="#8fc353" stroke-width="1.51"/><path d="M560,628L477,712L588,746Z" fill="#85b94e" stroke="#85b94e" stroke-width="1.51"/><path d="M506,335L458,519L593,440Z" fill="#93c757" stroke="#93c757" stroke-width="1.51"/><path d="M935,359L842,196L838,365Z" fill="#8ec254" stroke="#8ec254" stroke-width="1.51"/><path d="M1078,363L986,283L935,359Z" fill="#88bc4f" stroke="#88bc4f" stroke-width="1.51"/><path d="M657,321L506,335L593,440Z" fill="#95c859" stroke="#95c859" stroke-width="1.51"/><path d="M592,229L506,335L657,321Z" fill="#98ca5f" stroke="#98ca5f" stroke-width="1.51"/><path d="M663,951L885,884L700,789Z" fill="#72aa3d" stroke="#72aa3d" stroke-width="1.51"/><path d="M462,692L477,712L560,628Z" fill="#87bb51" stroke="#87bb51" stroke-width="1.51"/><path d="M458,519L462,692L560,628Z" fill="#8cbf53" stroke="#8cbf53" stroke-width="1.51"/><path d="M1084,541L1078,363L1029,551Z" fill="#7eb543" stroke="#7eb543" stroke-width="1.51"/><path d="M773,292L592,229L657,321Z" fill="#96c95b" stroke="#96c95b" stroke-width="1.51"/><path d="M986,283L842,196L935,359Z" fill="#8ec155" stroke="#8ec155" stroke-width="1.51"/><path d="M987,752L1164,726L1064,680Z" fill="#71a83c" stroke="#71a83c" stroke-width="1.51"/><path d="M700,789L885,884L834,714Z" fill="#75ac3f" stroke="#75ac3f" stroke-width="1.51"/><path d="M555,854L700,789L588,746Z" fill="#7bb146" stroke="#7bb146" stroke-width="1.51"/><path d="M660,81L592,229L773,292Z" fill="#9acb62" stroke="#9acb62" stroke-width="1.51"/><path d="M477,712L555,854L588,746Z" fill="#80b44b" stroke="#80b44b" stroke-width="1.51"/><path d="M466,929L555,854L477,712Z" fill="#7db14c" stroke="#7db14c" stroke-width="1.51"/><path d="M842,196L660,81L773,292Z" fill="#98c860" stroke="#98c860" stroke-width="1.51"/><path d="M985,182L859,135L842,196Z" fill="#95c55f" stroke="#95c55f" stroke-width="1.51"/><path d="M985,182L842,196L986,283Z" fill="#91c25a" stroke="#91c25a" stroke-width="1.51"/><path d="M1105,236L985,182L986,283Z" fill="#8dbe57" stroke="#8dbe57" stroke-width="1.51"/><path d="M555,854L663,951L700,789Z" fill="#77ad43" stroke="#77ad43" stroke-width="1.51"/><path d="M1084,541L1201,523L1078,363Z" fill="#7cb342" stroke="#7cb342" stroke-width="1.51"/><path d="M1078,363L1105,236L986,283Z" fill="#87bb51" stroke="#87bb51" stroke-width="1.51"/><path d="M1240,603L1201,523L1084,541Z" fill="#76ad3f" stroke="#76ad3f" stroke-width="1.51"/><path d="M1064,680L1240,603L1084,541Z" fill="#75ac3e" stroke="#75ac3e" stroke-width="1.51"/><path d="M1182,913L1164,726L987,752Z" fill="#6aa139" stroke="#6aa139" stroke-width="1.51"/><path d="M458,519L350,591L462,692Z" fill="#8fc157" stroke="#8fc157" stroke-width="1.51"/><path d="M462,692L334,747L477,712Z" fill="#87ba53" stroke="#87ba53" stroke-width="1.51"/><path d="M329,511L350,591L458,519Z" fill="#93c55b" stroke="#93c55b" stroke-width="1.51"/><path d="M885,884L988,936L987,752Z" fill="#6da43a" stroke="#6da43a" stroke-width="1.51"/><path d="M984,1019L988,936L885,884Z" fill="#689e38" stroke="#689e38" stroke-width="1.51"/><path d="M1199,288L1105,236L1078,363Z" fill="#84b850" stroke="#84b850" stroke-width="1.51"/><path d="M506,335L329,511L458,519Z" fill="#95c95a" stroke="#95c95a" stroke-width="1.51"/><path d="M283,353L329,511L506,335Z" fill="#9acb62" stroke="#9acb62" stroke-width="1.51"/><path d="M592,229L402,266L506,335Z" fill="#9ccc65" stroke="#9ccc65" stroke-width="1.51"/><path d="M518,142L402,266L592,229Z" fill="#a0ce6a" stroke="#a0ce6a" stroke-width="1.51"/><path d="M1268,449L1199,288L1078,363Z" fill="#7fb448" stroke="#7fb448" stroke-width="1.51"/><path d="M1164,726L1240,603L1064,680Z" fill="#70a73c" stroke="#70a73c" stroke-width="1.51"/><path d="M725,50L660,81L842,196Z" fill="#9dcc68" stroke="#9dcc68" stroke-width="1.51"/><path d="M556,112L518,142L592,229Z" fill="#a1ce6c" stroke="#a1ce6c" stroke-width="1.51"/><path d="M660,81L556,112L592,229Z" fill="#a0ce6b" stroke="#a0ce6b" stroke-width="1.51"/><path d="M555,854L466,929L663,951Z" fill="#77ab46" stroke="#77ab46" stroke-width="1.51"/><path d="M350,591L334,747L462,692Z" fill="#8cbd57" stroke="#8cbd57" stroke-width="1.51"/><path d="M176,581L334,747L350,591Z" fill="#92c15e" stroke="#92c15e" stroke-width="1.51"/><path d="M988,936L1045,955L987,752Z" fill="#69a039" stroke="#69a039" stroke-width="1.51"/><path d="M1164,726L1293,755L1240,603Z" fill="#6ca33a" stroke="#6ca33a" stroke-width="1.51"/><path d="M984,1019L1045,955L988,936Z" fill="#639935" stroke="#639935" stroke-width="1.51"/><path d="M1268,449L1078,363L1201,523Z" fill="#7bb242" stroke="#7bb242" stroke-width="1.51"/><path d="M546,-57L417,25L556,112Z" fill="#abd47d" stroke="#abd47d" stroke-width="1.51"/><path d="M859,135L725,50L842,196Z" fill="#9ac965" stroke="#9ac965" stroke-width="1.51"/><path d="M888,-11L725,50L859,135Z" fill="#9fcb6c" stroke="#9fcb6c" stroke-width="1.51"/><path d="M888,-11L859,135L1031,22Z" fill="#9cc86b" stroke="#9cc86b" stroke-width="1.51"/><path d="M334,747L466,929L477,712Z" fill="#82b551" stroke="#82b551" stroke-width="1.51"/><path d="M1240,603L1268,449L1201,523Z" fill="#75ac3e" stroke="#75ac3e" stroke-width="1.51"/><path d="M894,1088L885,884L663,951Z" fill="#69a039" stroke="#69a039" stroke-width="1.51"/><path d="M894,1088L984,1019L885,884Z" fill="#639a35" stroke="#639a35" stroke-width="1.51"/><path d="M329,511L176,581L350,591Z" fill="#96c560" stroke="#96c560" stroke-width="1.51"/><path d="M402,266L283,353L506,335Z" fill="#9ecd67" stroke="#9ecd67" stroke-width="1.51"/><path d="M346,195L283,353L402,266Z" fill="#a2cf6e" stroke="#a2cf6e" stroke-width="1.51"/><path d="M283,353L241,482L329,511Z" fill="#9bcb63" stroke="#9bcb63" stroke-width="1.51"/><path d="M1147,1035L1182,913L1045,955Z" fill="#5e9533" stroke="#5e9533" stroke-width="1.51"/><path d="M1045,955L1182,913L987,752Z" fill="#679e38" stroke="#679e38" stroke-width="1.51"/><path d="M378,155L346,195L402,266Z" fill="#a5d072" stroke="#a5d072" stroke-width="1.51"/><path d="M378,155L402,266L518,142Z" fill="#a3d070" stroke="#a3d070" stroke-width="1.51"/><path d="M597,1082L655,1085L663,951Z" fill="#679d3b" stroke="#679d3b" stroke-width="1.51"/><path d="M417,25L518,142L556,112Z" fill="#a7d176" stroke="#a7d176" stroke-width="1.51"/><path d="M417,25L378,155L518,142Z" fill="#a8d278" stroke="#a8d278" stroke-width="1.51"/><path d="M655,1085L894,1088L663,951Z" fill="#649b36" stroke="#649b36" stroke-width="1.51"/><path d="M984,1019L1147,1035L1045,955Z" fill="#5d9433" stroke="#5d9433" stroke-width="1.51"/><path d="M1182,913L1293,755L1164,726Z" fill="#669d37" stroke="#669d37" stroke-width="1.51"/><path d="M1240,603L1332,455L1268,449Z" fill="#74ab3e" stroke="#74ab3e" stroke-width="1.51"/><path d="M1418,668L1332,455L1240,603Z" fill="#6ea63b" stroke="#6ea63b" stroke-width="1.51"/><path d="M1268,449L1407,366L1199,288Z" fill="#7ab046" stroke="#7ab046" stroke-width="1.51"/><path d="M1031,22L859,135L985,182Z" fill="#96c463" stroke="#96c463" stroke-width="1.51"/><path d="M546,-57L556,112L660,81Z" fill="#a7d276" stroke="#a7d276" stroke-width="1.51"/><path d="M1121,86L985,182L1105,236Z" fill="#8ebe5c" stroke="#8ebe5c" stroke-width="1.51"/><path d="M466,929L597,1082L663,951Z" fill="#6fa342" stroke="#6fa342" stroke-width="1.51"/><path d="M1289,148L1121,86L1105,236Z" fill="#8bba5b" stroke="#8bba5b" stroke-width="1.51"/><path d="M1130,15L1121,86L1320,88Z" fill="#90bd64" stroke="#90bd64" stroke-width="1.51"/><path d="M466,929L409,984L597,1082Z" fill="#71a445" stroke="#71a445" stroke-width="1.51"/><path d="M282,912L409,984L466,929Z" fill="#7bac4f" stroke="#7bac4f" stroke-width="1.51"/><path d="M282,912L466,929L334,747Z" fill="#81b253" stroke="#81b253" stroke-width="1.51"/><path d="M1121,86L1031,22L985,182Z" fill="#94c164" stroke="#94c164" stroke-width="1.51"/><path d="M241,482L176,581L329,511Z" fill="#99c863" stroke="#99c863" stroke-width="1.51"/><path d="M166,407L176,581L241,482Z" fill="#9dcb68" stroke="#9dcb68" stroke-width="1.51"/><path d="M166,407L241,482L283,353Z" fill="#9fcd69" stroke="#9fcd69" stroke-width="1.51"/><path d="M176,581L241,830L334,747Z" fill="#8ebd5d" stroke="#8ebd5d" stroke-width="1.51"/><path d="M1182,913L1364,914L1293,755Z" fill="#609634" stroke="#609634" stroke-width="1.51"/><path d="M894,1088L1147,1035L984,1019Z" fill="#5b9031" stroke="#5b9031" stroke-width="1.51"/><path d="M241,830L282,912L334,747Z" fill="#85b558" stroke="#85b558" stroke-width="1.51"/><path d="M346,195L233,241L283,353Z" fill="#a5d072" stroke="#a5d072" stroke-width="1.51"/><path d="M180,153L233,241L346,195Z" fill="#aad37a" stroke="#aad37a" stroke-width="1.51"/><path d="M233,241L166,407L283,353Z" fill="#a3cf70" stroke="#a3cf70" stroke-width="1.51"/><path d="M546,-57L660,81L725,50Z" fill="#a7d276" stroke="#a7d276" stroke-width="1.51"/><path d="M378,155L306,22L346,195Z" fill="#aad37b" stroke="#aad37b" stroke-width="1.51"/><path d="M1121,86L1130,15L1031,22Z" fill="#96c169" stroke="#96c169" stroke-width="1.51"/><path d="M998,-114L864,-102L888,-11Z" fill="#a6cd7a" stroke="#a6cd7a" stroke-width="1.51"/><path d="M1289,148L1105,236L1199,288Z" fill="#86b854" stroke="#86b854" stroke-width="1.51"/><path d="M1407,366L1312,200L1199,288Z" fill="#7eb14d" stroke="#7eb14d" stroke-width="1.51"/><path d="M538,-122L546,-57L704,-162Z" fill="#b3d888" stroke="#b3d888" stroke-width="1.51"/><path d="M864,-102L725,50L888,-11Z" fill="#a4ce75" stroke="#a4ce75" stroke-width="1.51"/><path d="M1312,200L1289,148L1199,288Z" fill="#84b554" stroke="#84b554" stroke-width="1.51"/><path d="M998,-114L888,-11L1031,22Z" fill="#a1c974" stroke="#a1c974" stroke-width="1.51"/><path d="M217,1025L336,1024L282,912Z" fill="#7aa952" stroke="#7aa952" stroke-width="1.51"/><path d="M282,912L336,1024L409,984Z" fill="#79a950" stroke="#79a950" stroke-width="1.51"/><path d="M409,984L336,1024L597,1082Z" fill="#6fa146" stroke="#6fa146" stroke-width="1.51"/><path d="M1293,755L1418,668L1240,603Z" fill="#69a039" stroke="#69a039" stroke-width="1.51"/><path d="M1332,455L1407,366L1268,449Z" fill="#76ac41" stroke="#76ac41" stroke-width="1.51"/><path d="M1418,828L1418,668L1293,755Z" fill="#639935" stroke="#639935" stroke-width="1.51"/><path d="M1312,200L1320,88L1289,148Z" fill="#86b559" stroke="#86b559" stroke-width="1.51"/><path d="M1475,520L1407,366L1332,455Z" fill="#71a93e" stroke="#71a93e" stroke-width="1.51"/><path d="M1147,1035L1274,990L1182,913Z" fill="#5a9031" stroke="#5a9031" stroke-width="1.51"/><path d="M1134,-75L998,-114L1031,22Z" fill="#9fc674" stroke="#9fc674" stroke-width="1.51"/><path d="M1134,-75L1031,22L1130,15Z" fill="#9ac36e" stroke="#9ac36e" stroke-width="1.51"/><path d="M1274,990L1364,914L1182,913Z" fill="#5b9132" stroke="#5b9132" stroke-width="1.51"/><path d="M1490,677L1475,520L1418,668Z" fill="#679d37" stroke="#679d37" stroke-width="1.51"/><path d="M1418,668L1475,520L1332,455Z" fill="#6da33a" stroke="#6da33a" stroke-width="1.51"/><path d="M1364,914L1418,828L1293,755Z" fill="#5e9533" stroke="#5e9533" stroke-width="1.51"/><path d="M417,25L306,22L378,155Z" fill="#add580" stroke="#add580" stroke-width="1.51"/><path d="M233,241L130,217L166,407Z" fill="#a8d278" stroke="#a8d278" stroke-width="1.51"/><path d="M365,-76L306,22L417,25Z" fill="#b3d889" stroke="#b3d889" stroke-width="1.51"/><path d="M546,-57L365,-76L417,25Z" fill="#b2d787" stroke="#b2d787" stroke-width="1.51"/><path d="M704,-162L546,-57L725,50Z" fill="#acd47e" stroke="#acd47e" stroke-width="1.51"/><path d="M704,-162L725,50L864,-102Z" fill="#aad27c" stroke="#aad27c" stroke-width="1.51"/><path d="M1289,148L1320,88L1121,86Z" fill="#8bb95e" stroke="#8bb95e" stroke-width="1.51"/><path d="M1469,214L1320,88L1312,200Z" fill="#82b256" stroke="#82b256" stroke-width="1.51"/><path d="M1469,214L1312,200L1407,366Z" fill="#7cae4d" stroke="#7cae4d" stroke-width="1.51"/><path d="M998,-114L704,-162L864,-102Z" fill="#acd180" stroke="#acd180" stroke-width="1.51"/><path d="M306,22L180,153L346,195Z" fill="#add47f" stroke="#add47f" stroke-width="1.51"/><path d="M1270,-54L1134,-75L1130,15Z" fill="#98c16f" stroke="#98c16f" stroke-width="1.51"/><path d="M176,581L108,796L241,830Z" fill="#91be62" stroke="#91be62" stroke-width="1.51"/><path d="M241,830L156,927L282,912Z" fill="#84b35a" stroke="#84b35a" stroke-width="1.51"/><path d="M26,670L108,796L176,581Z" fill="#97c269" stroke="#97c269" stroke-width="1.51"/><path d="M16,538L176,581L166,407Z" fill="#a0cc6d" stroke="#a0cc6d" stroke-width="1.51"/><path d="M180,153L130,217L233,241Z" fill="#acd57f" stroke="#acd57f" stroke-width="1.51"/><path d="M1418,828L1490,677L1418,668Z" fill="#629835" stroke="#629835" stroke-width="1.51"/><path d="M130,217L69,364L166,407Z" fill="#a9d378" stroke="#a9d378" stroke-width="1.51"/><path d="M116,896L156,927L241,830Z" fill="#87b45e" stroke="#87b45e" stroke-width="1.51"/><path d="M156,927L217,1025L282,912Z" fill="#80ae58" stroke="#80ae58" stroke-width="1.51"/><path d="M336,1024L217,1025L597,1082Z" fill="#70a049" stroke="#70a049" stroke-width="1.51"/><path d="M538,-122L365,-76L546,-57Z" fill="#b5d98a" stroke="#b5d98a" stroke-width="1.51"/><path d="M133,23L103,107L180,153Z" fill="#b5d88c" stroke="#b5d88c" stroke-width="1.51"/><path d="M156,927L11,1038L217,1025Z" fill="#80ab5c" stroke="#80ab5c" stroke-width="1.51"/><path d="M108,796L116,896L241,830Z" fill="#8bb860" stroke="#8bb860" stroke-width="1.51"/><path d="M-52,880L116,896L108,796Z" fill="#8fb967" stroke="#8fb967" stroke-width="1.51"/><path d="M69,364L16,538L166,407Z" fill="#a5d072" stroke="#a5d072" stroke-width="1.51"/><path d="M1418,828L1520,710L1490,677Z" fill="#5e9533" stroke="#5e9533" stroke-width="1.51"/><path d="M1490,677L1576,569L1475,520Z" fill="#659b36" stroke="#659b36" stroke-width="1.51"/><path d="M1482,856L1520,710L1418,828Z" fill="#5b9232" stroke="#5b9232" stroke-width="1.51"/><path d="M16,538L26,670L176,581Z" fill="#9ec96f" stroke="#9ec96f" stroke-width="1.51"/><path d="M1320,88L1270,-54L1130,15Z" fill="#92bc68" stroke="#92bc68" stroke-width="1.51"/><path d="M1591,330L1469,214L1407,366Z" fill="#74a747" stroke="#74a747" stroke-width="1.51"/><path d="M1548,435L1407,366L1475,520Z" fill="#6ea53c" stroke="#6ea53c" stroke-width="1.51"/><path d="M1558,1034L1482,856L1364,914Z" fill="#53892e" stroke="#53892e" stroke-width="1.51"/><path d="M1364,914L1482,856L1418,828Z" fill="#5a9031" stroke="#5a9031" stroke-width="1.51"/><path d="M1134,-75L1248,-160L998,-114Z" fill="#a0c679" stroke="#a0c679" stroke-width="1.51"/><path d="M1370,9L1270,-54L1320,88Z" fill="#8fb967" stroke="#8fb967" stroke-width="1.51"/><path d="M1576,569L1548,435L1475,520Z" fill="#679d38" stroke="#679d38" stroke-width="1.51"/><path d="M1514,158L1370,9L1320,88Z" fill="#86b35d" stroke="#86b35d" stroke-width="1.51"/><path d="M1640,611L1576,569L1520,710Z" fill="#5e9533" stroke="#5e9533" stroke-width="1.51"/><path d="M1520,710L1576,569L1490,677Z" fill="#609734" stroke="#609734" stroke-width="1.51"/><path d="M133,23L180,153L306,22Z" fill="#b4d88a" stroke="#b4d88a" stroke-width="1.51"/><path d="M180,153L103,107L130,217Z" fill="#b1d785" stroke="#b1d785" stroke-width="1.51"/><path d="M130,217L-1,315L69,364Z" fill="#add47f" stroke="#add47f" stroke-width="1.51"/><path d="M-109,400L-101,499L16,538Z" fill="#aad27c" stroke="#aad27c" stroke-width="1.51"/><path d="M538,-122L428,-184L365,-76Z" fill="#b9db91" stroke="#b9db91" stroke-width="1.51"/><path d="M206,-65L133,23L306,22Z" fill="#b9db91" stroke="#b9db91" stroke-width="1.51"/><path d="M704,-162L428,-184L538,-122Z" fill="#b7da8e" stroke="#b7da8e" stroke-width="1.51"/><path d="M16,538L-51,594L26,670Z" fill="#a1ca74" stroke="#a1ca74" stroke-width="1.51"/><path d="M-59,147L-1,315L130,217Z" fill="#b3d788" stroke="#b3d788" stroke-width="1.51"/><path d="M-226,287L-109,400L-1,315Z" fill="#b4d889" stroke="#b4d889" stroke-width="1.51"/><path d="M206,-65L306,22L365,-76Z" fill="#b8da90" stroke="#b8da90" stroke-width="1.51"/><path d="M26,670L-46,728L108,796Z" fill="#97c16d" stroke="#97c16d" stroke-width="1.51"/><path d="M-101,499L-51,594L16,538Z" fill="#a6ce78" stroke="#a6ce78" stroke-width="1.51"/><path d="M1469,214L1514,158L1320,88Z" fill="#80af56" stroke="#80af56" stroke-width="1.51"/><path d="M1633,226L1514,158L1469,214Z" fill="#76a74e" stroke="#76a74e" stroke-width="1.51"/><path d="M1591,330L1407,366L1548,435Z" fill="#6fa440" stroke="#6fa440" stroke-width="1.51"/><path d="M1274,990L1405,1089L1364,914Z" fill="#52882d" stroke="#52882d" stroke-width="1.51"/><path d="M1147,1035L1405,1089L1274,990Z" fill="#51872c" stroke="#51872c" stroke-width="1.51"/><path d="M894,1088L1405,1089L1147,1035Z" fill="#53892d" stroke="#53892d" stroke-width="1.51"/><path d="M158,-135L206,-65L365,-76Z" fill="#bddd99" stroke="#bddd99" stroke-width="1.51"/><path d="M1752,409L1591,330L1548,435Z" fill="#669a3a" stroke="#669a3a" stroke-width="1.51"/><path d="M-51,594L-46,728L26,670Z" fill="#9fc773" stroke="#9fc773" stroke-width="1.51"/><path d="M116,896L11,1038L156,927Z" fill="#86b161" stroke="#86b161" stroke-width="1.51"/><path d="M1422,-138L1248,-160L1270,-54Z" fill="#99be75" stroke="#99be75" stroke-width="1.51"/><path d="M1270,-54L1248,-160L1134,-75Z" fill="#9bc175" stroke="#9bc175" stroke-width="1.51"/><path d="M998,-114L1248,-160L704,-162Z" fill="#a9cd80" stroke="#a9cd80" stroke-width="1.51"/><path d="M704,-162L1647,-197L428,-184Z" fill="#add084" stroke="#add084" stroke-width="1.51"/><path d="M1422,-138L1270,-54L1370,9Z" fill="#93ba6e" stroke="#93ba6e" stroke-width="1.51"/><path d="M1576,569L1752,409L1548,435Z" fill="#629935" stroke="#629935" stroke-width="1.51"/><path d="M1652,818L1640,611L1520,710Z" fill="#578d30" stroke="#578d30" stroke-width="1.51"/><path d="M1652,818L1520,710L1482,856Z" fill="#568c2f" stroke="#568c2f" stroke-width="1.51"/><path d="M-109,400L16,538L69,364Z" fill="#aad37a" stroke="#aad37a" stroke-width="1.51"/><path d="M-51,594L-143,629L-46,728Z" fill="#a2c978" stroke="#a2c978" stroke-width="1.51"/><path d="M-109,400L69,364L-1,315Z" fill="#aed580" stroke="#aed580" stroke-width="1.51"/><path d="M-151,868L-52,880L-46,728Z" fill="#97bf72" stroke="#97bf72" stroke-width="1.51"/><path d="M-46,728L-52,880L108,796Z" fill="#95be6d" stroke="#95be6d" stroke-width="1.51"/><path d="M-59,147L130,217L103,107Z" fill="#b5d98c" stroke="#b5d98c" stroke-width="1.51"/><path d="M-52,880L11,1038L116,896Z" fill="#8bb467" stroke="#8bb467" stroke-width="1.51"/><path d="M217,1025L11,1038L597,1082Z" fill="#73a24f" stroke="#73a24f" stroke-width="1.51"/><path d="M1531,-112L1422,-138L1370,9Z" fill="#91b76e" stroke="#91b76e" stroke-width="1.51"/><path d="M1591,330L1633,226L1469,214Z" fill="#72a448" stroke="#72a448" stroke-width="1.51"/><path d="M1752,409L1633,226L1591,330Z" fill="#689b3f" stroke="#689b3f" stroke-width="1.51"/><path d="M1645,958L1652,818L1482,856Z" fill="#4e842b" stroke="#4e842b" stroke-width="1.51"/><path d="M1764,554L1752,409L1576,569Z" fill="#5b9232" stroke="#5b9232" stroke-width="1.51"/><path d="M-109,-28L-59,147L103,107Z" fill="#bede9a" stroke="#bede9a" stroke-width="1.51"/><path d="M206,-65L106,-136L133,23Z" fill="#bfde9c" stroke="#bfde9c" stroke-width="1.51"/><path d="M428,-184L158,-135L365,-76Z" fill="#bedd99" stroke="#bedd99" stroke-width="1.51"/><path d="M1405,1089L1558,1034L1364,914Z" fill="#4d832b" stroke="#4d832b" stroke-width="1.51"/><path d="M-236,543L-143,629L-101,499Z" fill="#abd081" stroke="#abd081" stroke-width="1.51"/><path d="M-101,499L-143,629L-51,594Z" fill="#a8ce7c" stroke="#a8ce7c" stroke-width="1.51"/><path d="M-109,-28L103,107L133,23Z" fill="#bedd99" stroke="#bedd99" stroke-width="1.51"/><path d="M1633,226L1624,161L1514,158Z" fill="#74a34d" stroke="#74a34d" stroke-width="1.51"/><path d="M-109,400L-146,404L-101,499Z" fill="#afd582" stroke="#afd582" stroke-width="1.51"/><path d="M-226,287L-146,404L-109,400Z" fill="#b4d88a" stroke="#b4d88a" stroke-width="1.51"/><path d="M1560,3L1370,9L1514,158Z" fill="#84af5e" stroke="#84af5e" stroke-width="1.51"/><path d="M1603,16L1560,3L1514,158Z" fill="#7ea95b" stroke="#7ea95b" stroke-width="1.51"/><path d="M-151,868L-50,1019L-52,880Z" fill="#92b86f" stroke="#92b86f" stroke-width="1.51"/><path d="M-52,880L-50,1019L11,1038Z" fill="#89b168" stroke="#89b168" stroke-width="1.51"/><path d="M428,-184L106,-136L158,-135Z" fill="#c2e09f" stroke="#c2e09f" stroke-width="1.51"/><path d="M158,-135L106,-136L206,-65Z" fill="#c3e0a0" stroke="#c3e0a0" stroke-width="1.51"/><path d="M1558,1034L1645,958L1482,856Z" fill="#4b812a" stroke="#4b812a" stroke-width="1.51"/><path d="M1624,161L1603,16L1514,158Z" fill="#79a654" stroke="#79a654" stroke-width="1.51"/><path d="M1560,3L1531,-112L1370,9Z" fill="#8ab367" stroke="#8ab367" stroke-width="1.51"/><path d="M-204,803L-151,868L-46,728Z" fill="#9cc177" stroke="#9cc177" stroke-width="1.51"/><path d="M-204,803L-46,728L-143,629Z" fill="#a1c679" stroke="#a1c679" stroke-width="1.51"/><path d="M1764,554L1640,611L1781,618Z" fill="#588e30" stroke="#588e30" stroke-width="1.51"/><path d="M1764,554L1576,569L1640,611Z" fill="#5a9132" stroke="#5a9132" stroke-width="1.51"/><path d="M1633,226L1778,179L1624,161Z" fill="#6d9d49" stroke="#6d9d49" stroke-width="1.51"/><path d="M1624,161L1702,-36L1603,16Z" fill="#79a459" stroke="#79a459" stroke-width="1.51"/><path d="M1781,618L1640,611L1652,818Z" fill="#53892e" stroke="#53892e" stroke-width="1.51"/><path d="M1603,16L1531,-112L1560,3Z" fill="#84ad64" stroke="#84ad64" stroke-width="1.51"/><path d="M1764,554L1811,282L1752,409Z" fill="#609636" stroke="#609636" stroke-width="1.51"/><path d="M1794,799L1781,618L1652,818Z" fill="#4f852c" stroke="#4f852c" stroke-width="1.51"/><path d="M-146,404L-236,543L-101,499Z" fill="#afd582" stroke="#afd582" stroke-width="1.51"/><path d="M-59,147L-158,157L-1,315Z" fill="#b8db91" stroke="#b8db91" stroke-width="1.51"/><path d="M-155,-20L-158,157L-59,147Z" fill="#c2df9f" stroke="#c2df9f" stroke-width="1.51"/><path d="M-226,287L-236,543L-146,404Z" fill="#b4d88a" stroke="#b4d88a" stroke-width="1.51"/><path d="M-236,543L-204,803L-143,629Z" fill="#a8cb80" stroke="#a8cb80" stroke-width="1.51"/><path d="M-151,868L-156,1063L-50,1019Z" fill="#8db36e" stroke="#8db36e" stroke-width="1.51"/><path d="M1759,915L1794,799L1652,818Z" fill="#497f29" stroke="#497f29" stroke-width="1.51"/><path d="M1558,1034L1647,1090L1645,958Z" fill="#407524" stroke="#407524" stroke-width="1.51"/><path d="M1405,1089L1647,1090L1558,1034Z" fill="#417725" stroke="#417725" stroke-width="1.51"/><path d="M894,1088L1647,1090L1405,1089Z" fill="#4a8029" stroke="#4a8029" stroke-width="1.51"/><path d="M-158,157L-226,287L-1,315Z" fill="#b9db91" stroke="#b9db91" stroke-width="1.51"/><path d="M1759,915L1652,818L1645,958Z" fill="#477d27" stroke="#477d27" stroke-width="1.51"/><path d="M1803,1047L1759,915L1645,958Z" fill="#407624" stroke="#407624" stroke-width="1.51"/><path d="M-35,-133L-109,-28L133,23Z" fill="#c6e1a5" stroke="#c6e1a5" stroke-width="1.51"/><path d="M-158,157L-232,-102L-226,287Z" fill="#c4e1a2" stroke="#c4e1a2" stroke-width="1.51"/><path d="M106,-136L-35,-133L133,23Z" fill="#c5e1a4" stroke="#c5e1a4" stroke-width="1.51"/><path d="M428,-184L-35,-133L106,-136Z" fill="#c5e1a4" stroke="#c5e1a4" stroke-width="1.51"/><path d="M1603,16L1702,-36L1531,-112Z" fill="#81aa64" stroke="#81aa64" stroke-width="1.51"/><path d="M1811,282L1778,179L1633,226Z" fill="#6a9b45" stroke="#6a9b45" stroke-width="1.51"/><path d="M1811,282L1633,226L1752,409Z" fill="#66993f" stroke="#66993f" stroke-width="1.51"/><path d="M1811,282L1764,554L1781,618Z" fill="#5d9332" stroke="#5d9332" stroke-width="1.51"/><path d="M1794,799L1811,282L1781,618Z" fill="#598f30" stroke="#598f30" stroke-width="1.51"/><path d="M-50,1019L-156,1063L11,1038Z" fill="#84ab67" stroke="#84ab67" stroke-width="1.51"/><path d="M11,1038L-156,1063L597,1082Z" fill="#78a456" stroke="#78a456" stroke-width="1.51"/><path d="M597,1082L-156,1063L655,1085Z" fill="#6d9d48" stroke="#6d9d48" stroke-width="1.51"/><path d="M-204,803L-156,1063L-151,868Z" fill="#96bb75" stroke="#96bb75" stroke-width="1.51"/><path d="M-232,-102L-155,-20L-109,-28Z" fill="#cee6b1" stroke="#cee6b1" stroke-width="1.51"/><path d="M-109,-28L-155,-20L-59,147Z" fill="#c5e1a4" stroke="#c5e1a4" stroke-width="1.51"/><path d="M1778,179L1702,-36L1624,161Z" fill="#729e51" stroke="#729e51" stroke-width="1.51"/><path d="M1787,-123L1647,-197L1702,-36Z" fill="#81a668" stroke="#81a668" stroke-width="1.51"/><path d="M1702,-36L1647,-197L1531,-112Z" fill="#85ab6a" stroke="#85ab6a" stroke-width="1.51"/><path d="M1531,-112L1647,-197L1422,-138Z" fill="#8fb372" stroke="#8fb372" stroke-width="1.51"/><path d="M1422,-138L1647,-197L1248,-160Z" fill="#97bb77" stroke="#97bb77" stroke-width="1.51"/><path d="M1248,-160L1647,-197L704,-162Z" fill="#a1c57d" stroke="#a1c57d" stroke-width="1.51"/><path d="M1794,799L1803,1047L1811,282Z" fill="#51872d" stroke="#51872d" stroke-width="1.51"/><path d="M1759,915L1803,1047L1794,799Z" fill="#457b27" stroke="#457b27" stroke-width="1.51"/><path d="M1647,1090L1803,1047L1645,958Z" fill="#3a7021" stroke="#3a7021" stroke-width="1.51"/><path d="M-35,-133L-232,-102L-109,-28Z" fill="#cee6b3" stroke="#cee6b3" stroke-width="1.51"/><path d="M-155,-20L-232,-102L-158,157Z" fill="#cae4ac" stroke="#cae4ac" stroke-width="1.51"/><path d="M-226,287L-232,-102L-236,543Z" fill="#bede99" stroke="#bede99" stroke-width="1.51"/><path d="M1778,179L1787,-123L1702,-36Z" fill="#78a25b" stroke="#78a25b" stroke-width="1.51"/><path d="M1811,282L1787,-123L1778,179Z" fill="#719e50" stroke="#719e50" stroke-width="1.51"/></svg>